<?xml version="1.0" encoding="UTF-8"?>
<!DOCTYPE svg PUBLIC "-//W3C//DTD SVG 1.1//EN" "http://www.w3.org/Graphics/SVG/1.1/DTD/svg11.dtd">
<!-- Creator: CorelDRAW 2017 -->
<svg xmlns="http://www.w3.org/2000/svg" xml:space="preserve" width="541.867mm" height="406.4mm" version="1.1" style="shape-rendering:geometricPrecision; text-rendering:geometricPrecision; image-rendering:optimizeQuality; fill-rule:evenodd; clip-rule:evenodd"
viewBox="0 0 54187 40640"
 xmlns:xlink="http://www.w3.org/1999/xlink">
 <defs>
  <style type="text/css">
   <![CDATA[
    .fil0 {fill:#00355F}
    .fil3 {fill:#013C79}
    .fil4 {fill:#023C7A}
    .fil6 {fill:#053D79}
    .fil9 {fill:#0A4077}
    .fil13 {fill:#12467A}
    .fil12 {fill:#F4F9F5}
    .fil11 {fill:#F8FBF9}
    .fil7 {fill:#F9A33A}
    .fil2 {fill:#FBA43D}
    .fil5 {fill:#FCA33A}
    .fil8 {fill:#FCFDFB}
    .fil10 {fill:#FDFDF6}
    .fil1 {fill:#FEA238}
   ]]>
  </style>
 </defs>
 <g id="Ebene_x0020_1">
  <metadata id="CorelCorpID_0Corel-Layer"/>
  <g id="_1872616143280">
   <path class="fil0" d="M30640 18265l-1 -2690c377,-53 1641,-15 2040,31 657,76 824,750 823,1313 -1,563 -157,1208 -801,1308 -365,57 -1721,94 -2061,38zm2501 1471c281,-186 1228,-199 1669,-1709 251,-860 215,-2102 -143,-2944 -425,-1002 -1015,-1252 -2067,-1306 -400,-21 -3060,-37 -3375,-7l0 10660 1414 1 6 -4447c574,-67 1050,18 1385,503 240,347 456,892 637,1285 257,558 982,2313 1172,2658l1689 1c-91,-337 -368,-922 -513,-1269 -344,-828 -889,-2321 -1456,-2976 -103,-119 -352,-357 -419,-450z"/>
   <polygon class="fil0" points="37705,15567 41502,15553 41502,13764 36286,13763 36286,24431 41629,24431 41629,22628 37701,22625 37700,19733 41231,19731 41231,17937 37701,17935 "/>
   <polygon class="fil0" points="24118,15567 27913,15566 27913,13763 22697,13775 22697,24431 28040,24430 28040,22628 24112,22628 24112,19733 27641,19733 27642,17937 24112,17937 "/>
   <path class="fil0" d="M48148 21774l0 -926c-123,-558 -80,-790 -336,-1363 -150,-335 -435,-743 -732,-959 -1246,-905 -2979,-851 -3013,-2066 -33,-1178 1464,-1329 2022,-785 329,321 391,802 456,1242l1417 -98c-22,-886 -211,-1824 -826,-2498 -620,-681 -1660,-850 -2526,-658 -1901,421 -2252,2930 -1588,4464 921,2124 3471,1454 3703,2954 157,1016 -528,1866 -1593,1700 -944,-146 -1184,-1226 -1289,-2020l-1385 198c76,1603 683,3420 2492,3638 812,98 1731,-85 2319,-669 232,-230 460,-642 592,-945 248,-569 220,-1009 288,-1210z"/>
   <path class="fil1" d="M10588 13343c-113,27 -233,52 -354,-3 -254,-114 -174,-842 -147,-1057 40,-306 250,-1148 350,-1392l50 418c167,233 88,519 453,760 160,106 270,162 473,134 107,-15 395,-61 465,-125 89,-61 278,-113 407,-183 96,-52 278,-161 361,-229l968 -773c108,-99 207,-174 302,-261 87,-79 568,-485 600,-544l191 -251c-153,83 -583,468 -770,610 -249,191 -499,435 -754,603 -685,451 -856,772 -1733,986 -210,-22 -146,141 -411,-69 -315,-250 -444,-917 -414,-1328 117,-12 95,12 157,45l16 -27c-50,-31 -15,25 -58,-53 -23,-41 -6,-25 -17,-61 -19,-66 -14,-54 -50,-122l-185 -40 -70 468c-53,-86 -76,-330 -133,-465 -187,-87 -261,246 -323,389 -211,486 -471,1279 -490,1790 -18,472 232,715 509,1000 184,190 163,235 415,353 149,70 466,121 623,76 50,-61 257,-116 345,-152 133,-55 204,-112 333,-178l862 -650c78,-94 99,-211 199,-317 221,-234 66,-12 301,-335 54,-75 67,-38 117,-143 120,-255 403,-357 567,-557 115,-140 32,-157 218,-294 224,-165 417,-371 540,-460 171,-124 428,-577 726,-738l-128 265c-396,1370 -1350,2570 -1985,3851 -159,320 -334,637 -496,964 -167,336 -251,689 -408,1053 -318,735 -351,1014 -551,1651 -56,178 -16,142 -15,295 2,177 -183,674 -236,862 -54,191 -60,397 -137,581 -43,102 -165,1040 -200,1212 -148,721 -194,1180 -272,1878 -26,232 -26,433 -55,664 -83,667 -14,1020 -55,1347 -27,221 -18,430 -49,644 -11,77 45,409 30,576 -20,225 37,473 33,689 -6,363 12,120 37,257 19,105 -61,154 -2,314 87,237 -11,101 -34,279 -19,152 75,37 22,276 -29,132 59,455 -103,510 -74,-96 -2,16 -35,-136l-9 -36c-62,87 97,1440 118,1609 31,242 110,581 114,813 2,104 0,282 8,379 13,164 65,-29 21,107 -19,58 -30,14 -9,36l34 16c2,-5 11,2 16,6 -63,104 -41,-15 -62,129 137,102 76,42 151,399 16,75 12,135 22,191 13,70 42,85 60,184 49,285 91,649 119,931 67,-109 -12,-91 79,-102 93,112 215,901 499,1158 20,-32 9,15 13,-48 3,-70 -27,-98 -38,-188 -13,-74 -42,-108 -66,-182 -34,-103 -9,-96 -31,-175 -24,-84 -64,-93 -78,-177 -21,-128 27,-72 6,-209 -21,-136 -109,-260 -113,-402 -7,-208 106,-172 82,-387 -17,-148 -8,-281 -16,-422 -8,-153 -43,-293 -45,-446 -3,-174 72,-247 96,-381 29,-163 -86,-307 -14,-416l-6 -17c-55,6 -202,152 -211,-254 -4,-190 -104,-62 -44,-550 67,-551 -61,-168 -30,-466 21,-201 -40,-101 -30,-257 10,-164 48,-335 53,-561 5,-211 87,-466 225,-651 103,-137 136,-847 182,-1072 62,-304 92,-887 62,-1188 -12,-127 -1,-177 14,-297 12,-98 -3,-624 36,-809 15,-69 68,-1129 62,-1159 -97,-443 109,-1732 209,-2258 71,-373 173,-696 250,-1054 38,-176 108,-317 148,-490 39,-167 48,-394 111,-560 313,-827 602,-2119 948,-2972 147,-363 363,-790 508,-1129 14,-32 30,-79 45,-108 151,-289 28,-24 159,-354 20,-51 24,-55 53,-102 9,-14 21,-33 30,-46 4,-6 16,-25 20,-31l20 -30c-7,182 -225,862 -224,891 27,275 -415,1761 -464,2182 -18,150 -44,303 -64,451 -42,309 -55,646 -99,951 -56,391 -65,2455 -30,2998 20,319 -2,646 19,950 21,302 57,627 76,927l58 930c36,318 73,627 111,944 19,160 71,283 96,421 218,1211 609,2515 1023,3666 51,-214 -95,-603 -105,-832 -20,-106 -73,-207 -75,-315 -8,-304 -415,-1562 -491,-2025 -35,-214 -78,-415 -121,-620 -165,-786 -99,-1074 -194,-1831 -107,-851 -99,-1757 -140,-2625 -10,-202 8,-431 2,-645 -5,-172 -1,-457 7,-652 5,-121 39,-1345 28,-1348l-96 623c-30,-1270 311,-2625 605,-3844 71,-294 259,-954 265,-1220 -61,113 -149,350 -202,432 -51,-430 517,-1285 604,-1541 12,-36 29,-114 40,-138 27,-61 28,-39 76,-104 167,-228 105,-517 104,-599 -3,-211 167,-713 191,-870 18,-116 13,-236 27,-356 32,-274 106,-261 8,-568 -51,-160 -12,-133 23,-281 -78,33 -130,106 -144,21 -17,-99 235,-259 377,-399l24 -90c-497,314 -826,590 -1279,937 -213,163 -413,312 -630,471 -615,451 -1329,1182 -1758,1495 -369,269 -972,737 -1417,781z"/>
   <path class="fil0" d="M20132 20528c-80,528 -240,1241 -563,1674 -380,510 -944,758 -1552,439 -1021,-537 -1154,-2302 -1153,-3313 1,-1089 -3,-2791 897,-3570 452,-391 1169,-468 1622,-41 651,614 539,1069 724,1492l1386 -492c-80,-882 -552,-1941 -1213,-2536 -745,-671 -1954,-775 -2823,-290 -1754,979 -2054,3598 -2057,5386 -3,1673 477,4472 2276,5166 1000,386 2026,131 2750,-642 606,-647 943,-1762 1081,-2627l-1374 -645z"/>
   <path class="fil2" d="M7390 12674c25,56 167,710 176,791 37,319 445,2169 522,2482l-358 362c-52,122 -136,-201 -155,-259l-243 -782c-162,-586 -491,-1487 -483,-2090 144,-141 362,-530 513,-604l29 100zm881 3132c-78,62 -110,-237 -126,-322l-273 -1320c-63,-276 -101,-617 -169,-879l-200 -847c22,-95 175,-237 253,-333 88,-109 178,-230 281,-315l31 114c116,287 151,2086 326,2813l135 948 -258 141zm-1036 -6543c92,60 220,357 249,474 193,9 109,-19 246,139 240,277 -6,94 146,464 27,65 66,452 76,542 16,140 110,680 62,765 -16,28 -398,427 -424,443l-121 122c-54,-230 -147,-571 -177,-799l-364 -1557c-47,-210 43,-598 307,-592zm820 43c120,-41 131,-74 225,-133 1,103 -42,52 -94,185 -28,70 -61,134 -82,204 -56,-66 -12,-33 -83,-33 -32,105 4,96 -67,169 -12,-164 44,-247 101,-391zm-989 -656c49,75 78,196 66,301 3,94 18,119 -49,184l-37 -103c-90,-30 -96,-28 -132,-102 -52,82 -29,248 -107,361 -169,-244 100,-697 216,-757l43 116zm623 343c-116,-22 -168,-202 -182,-293l163 109 19 184zm-247 12c59,59 105,113 178,161 52,34 128,77 111,143l42 262c-1,55 0,16 -18,43 -69,-63 -36,-77 -84,-140 -35,-47 -26,-14 -63,-65 -1,-1 -36,-65 -39,-72 -57,-47 -38,-66 -115,-105 -159,-82 -180,27 -155,-279 14,-176 -56,-216 22,-370l99 18c42,66 24,73 15,164l-80 -61c-20,134 17,217 86,299zm-3179 -1461c110,34 192,144 305,216 266,170 247,81 269,245 -147,-32 -262,-104 -384,-187 -120,-40 -214,-132 -282,-225 -34,-46 -142,-257 -141,-314l233 264zm473 -798c-8,115 -10,206 -55,289 -43,-45 -124,-270 -176,-364 -81,-149 -98,-196 -200,-329l-246 -131 283 593c52,85 55,61 60,173 -121,-50 -196,-116 -295,-152 -282,-283 -408,-990 -508,-1108 -19,309 214,715 328,994 29,71 24,121 40,164 45,121 7,2 101,108 48,163 147,165 279,283 130,116 264,73 287,252 -456,-162 -279,-196 -448,-247 -69,-21 -65,-15 -111,-82 -124,37 -89,-95 -215,-165 131,442 386,827 716,1115 223,195 313,36 487,408 55,118 76,223 134,328 55,100 97,187 145,293 368,811 530,1824 887,2724 49,123 387,1362 377,1409 -2,10 -637,981 -701,1077 -132,196 -464,666 -409,908 20,90 42,237 78,306 92,180 799,901 978,768 -130,-246 -1143,-755 -846,-1387 90,-191 819,-1362 938,-1472l39 117c66,75 337,1321 430,1538 104,243 380,1267 524,1426 51,32 -49,-80 121,27 134,84 34,-10 105,128l3 -28c10,-55 4,-66 55,-99 -23,-232 253,-364 258,-370 96,-112 231,-280 394,-293 -25,81 -152,176 -218,238 -182,170 -191,116 -244,242 85,50 11,9 62,54 42,38 24,30 49,40 4,2 134,9 155,11 5,-136 122,-262 254,-180 3,195 14,132 -111,253 -127,123 -205,193 -371,295 -77,47 -136,92 -229,96 -131,86 -250,-33 -638,-165 -38,-13 -56,-30 -103,-49 -113,-4 -110,-30 -165,9 39,46 323,168 417,228 129,83 247,177 391,249 365,183 809,-236 921,-203l84 408 -15 -348c31,-78 32,36 33,-54 1,-88 -6,26 -32,-91 23,-126 -15,-74 46,-237 42,-113 31,-140 97,-264 88,-165 162,-238 239,-447l-42 -135c-65,67 -162,112 -214,179 -66,85 -49,203 -172,216 -48,-108 -63,-162 41,-243 50,-38 158,-122 206,-153 122,-78 306,-155 258,-428 -192,-5 -278,56 -451,97 -183,125 -150,-91 -206,-551 -53,-433 -190,-1209 -222,-1578 -37,-423 -73,-1168 -146,-1567 -70,-382 87,-319 304,-535 121,-121 576,-465 750,-581 102,-69 46,-55 105,-126 102,-122 68,18 125,-119 -252,37 -455,243 -644,393 -86,68 -496,398 -555,426l-109 103c-80,-108 -99,-618 -123,-793 -9,-69 -167,-933 103,-643l124 36 47 -70 14 -67 142 -34c-105,-264 -243,-67 -114,-529 26,-93 30,-544 -25,-614 -37,78 -28,211 -91,287 -32,-142 19,-257 32,-401 -111,-157 105,-655 -40,-760l-100 536c0,206 -239,577 -248,627 -16,90 -12,139 -51,198 -140,-232 63,-506 147,-707 -32,-161 -76,-53 -26,-274 -3,-203 78,-570 -45,-741 -17,200 0,634 -82,786 -155,-27 -33,-81 -139,-84l2 314c-65,-40 -67,-50 -92,-126 -10,-32 -27,-136 -61,-153l-15 130c48,103 45,119 56,242 -102,-60 -285,-221 -323,-342 -38,-121 -62,-360 -123,-477l-18 187 -58 -232c-113,-180 -34,-310 -199,-507l41 283 4 96c10,171 -39,616 -96,764l-99 -94c-107,91 -24,333 -127,423 -188,-301 158,-1087 156,-1101 -58,-159 -87,21 -142,-266 -16,-81 -43,-242 -65,-315 -101,-137 -90,-552 -258,-608 41,176 68,427 94,613 16,114 29,195 56,308 35,145 33,131 -57,233 -20,-69 -95,-350 -162,-407 59,106 231,667 139,780 -76,-93 -147,-515 -277,-664l138 469c25,96 52,165 11,252 -157,-61 -7,-53 -120,-160 -53,-50 -92,-33 -154,-102 -83,-92 -113,-232 -177,-329 -133,-98 -140,-344 -292,-498l172 660 41 108c74,43 62,56 95,145 19,51 38,111 65,159l184 130 297 183 -2 95 53 218c-35,-15 -200,-151 -248,-188 -114,-89 -107,-127 -191,-209 -123,16 -88,-246 -289,-336l-3 24c75,261 240,595 463,740l356 214 39 243c-90,-40 -25,-30 -116,-117l-347 -311c-57,85 -3,18 -71,32l-70 12c-3,-6 -13,2 -17,5 134,160 165,280 343,423 162,130 338,134 401,365 109,398 169,842 271,1241l363 1561c31,142 7,116 -97,224 -104,109 -226,315 -326,406l-84 123c-101,-70 -113,-190 -123,-299 -15,-172 -60,-195 -97,-341 -57,-226 -111,-440 -181,-665 -127,-407 -317,-918 -401,-1314l-214 -660c-94,-227 -109,-376 -240,-604 -66,-114 -219,-510 -199,-632l209 -657c-1,-153 64,-224 0,-366 -148,439 -61,149 -200,410l-71 -58c-63,7 -27,-19 -61,33 -19,30 -21,133 -30,170 -31,132 28,-83 -13,40l-19 34c-88,-194 -40,-181 7,-373 54,-219 -62,-196 199,-273l40 -24c-12,-142 -19,-68 -95,-174l12 -100c-61,-83 -40,-151 -46,-257 -6,-99 -36,-103 -77,-197l-18 43c47,150 27,370 -29,517l-75 -59c-63,37 -58,83 -76,174 -13,65 -24,129 -36,194 -171,-105 -55,-255 -20,-402 21,-87 25,-129 25,-215 0,-239 215,-215 24,-532 -96,-159 -53,-239 -91,-366 -123,-156 -52,-427 -211,-561 -25,116 77,486 61,636 -12,110 -48,-45 -20,137 20,133 62,298 -4,443z"/>
   <path class="fil3" d="M15648 9751c-143,140 -394,299 -377,399 14,84 66,12 144,-21 -35,147 -74,120 -23,281 98,307 25,294 -8,568 -14,120 -10,239 -27,356 -24,158 -195,660 -191,870 1,83 64,371 -104,599 -48,65 -49,44 -76,104 -11,24 -28,102 -40,138 -87,256 -655,1112 -604,1541 54,-82 141,-319 202,-432 -6,266 -195,927 -265,1220 -293,1219 -635,2574 -605,3844l96 -623c12,3 -22,1227 -28,1348 -8,195 -12,479 -7,652 6,215 -12,443 -2,645 42,868 33,1773 140,2625 95,757 29,1045 194,1831 43,206 86,407 121,620 76,463 484,1721 491,2025 3,108 55,208 75,315 84,160 195,694 292,735 48,-185 -172,-847 -183,-1001 -10,-132 16,-127 -37,-303 -329,-1093 -719,-2644 -720,-3789 0,-166 -40,-555 -78,-705 -38,-150 -74,-1241 -84,-1474 -6,-146 -31,-903 -17,-1027 13,-112 4,-264 2,-382 -4,-230 -8,-470 1,-743 8,-218 -10,-451 11,-674 18,-194 44,-511 35,-708 -94,154 6,516 -139,631 143,-2246 239,-2236 695,-4306 45,-206 -28,-140 -27,-290 3,-309 317,-1037 465,-1267 126,-196 138,-335 222,-493 94,-177 188,-247 194,-500 4,-157 -29,-339 52,-616 56,-193 116,-359 129,-560 7,-110 2,-235 27,-337 30,-121 44,-143 44,-270 -1,-230 -129,-308 -180,-495 117,-159 365,-307 418,-471l-227 141z"/>
   <path class="fil3" d="M11539 30576c-4,-138 -53,-101 -42,-231 6,-71 20,-15 -7,-73 -25,-55 -22,43 -39,-108 -24,-211 36,-395 34,-573 -1,-161 -73,-7 -59,-212 13,-198 0,-98 -22,-245 -9,-63 59,-458 55,-557 -8,-202 22,-79 10,-209 -14,-165 -9,1 56,-194 4,-11 16,-57 17,-59l140 -249c81,-102 153,-802 169,-981 17,-188 51,-302 59,-510 6,-177 34,-345 38,-519 6,-217 -30,-318 -5,-567 7,-67 2,-171 1,-233l83 -1352c15,-112 20,-140 18,-252 -2,-127 -20,-123 -31,-232 -12,-118 28,-562 28,-818 0,-141 27,-118 47,-250 24,-160 38,-381 59,-555 34,-288 233,-1186 327,-1493 135,-441 171,-521 242,-988l287 -912c139,-556 286,-845 420,-1405 58,-242 577,-1607 712,-1730 -1,-29 217,-709 224,-891l-20 30c-3,5 -16,24 -20,31 -9,14 -21,32 -30,46 -29,47 -33,51 -53,102 -131,330 -8,66 -159,354 -15,29 -31,76 -45,108 -145,339 -361,767 -508,1129 -346,852 -635,2144 -948,2972 -63,166 -72,392 -111,560 -40,173 -110,314 -148,490 -77,358 -180,681 -250,1054 -100,526 -305,1816 -209,2258 7,30 -47,1089 -62,1159 -39,185 -23,711 -36,809 -15,120 -27,171 -14,297 30,301 0,884 -62,1188 -46,225 -80,935 -182,1072 -139,185 -220,440 -225,651 -5,226 -43,396 -53,561 -10,156 52,56 30,257 -32,298 97,-84 30,466 -60,488 40,360 44,550 9,405 156,259 211,254z"/>
   <path class="fil1" d="M11658 6684c29,143 40,293 22,437l30 -74c66,412 109,690 249,1082 239,670 228,413 487,845l54 32c68,79 233,173 331,227 193,106 280,-1 430,-15 125,-180 104,-53 371,-485 144,-232 181,-308 245,-576 51,-209 111,-483 137,-699 14,-122 18,-277 26,-401 9,-147 -17,-232 3,-368l191 403 103 139c-10,-229 -73,-324 -123,-517 -174,-212 -104,-391 -344,-622l-370 -348c-53,-40 -82,-41 -131,-88l-260 -122c159,447 160,117 601,641 166,197 161,180 118,452 -33,207 -29,389 -53,592 -43,357 -191,1180 -404,1459 -87,114 -186,284 -315,335 -102,134 -214,36 -307,-33 -177,-132 -98,-70 -217,-244 -64,-93 -155,-176 -207,-279 -27,-54 -104,-266 -128,-334 -214,-620 -138,-651 -230,-1125 -43,-219 -10,-192 6,-378l-222 -190c41,-163 180,-261 273,-404 83,-129 203,-261 370,-268 112,-52 259,-61 311,-130 14,-124 -37,-127 -126,-178 -231,-8 -361,223 -506,367 -473,470 -471,539 -645,1096l-118 525c-9,55 -19,136 5,182 228,-229 198,-918 308,-1034l36 98z"/>
   <path class="fil3" d="M5561 7870l-209 657c-20,123 133,518 199,632 132,228 146,377 240,604l214 660c84,396 275,908 401,1314 70,225 123,440 181,665 37,146 82,169 97,341 9,109 22,229 123,299l84 -123c-56,-164 -22,-187 -51,-307 -25,-102 -74,-172 -104,-308 -141,-622 -413,-1295 -572,-1938l-203 -620c-94,-225 -107,-381 -236,-607 -51,-89 -232,-522 -224,-617 18,-211 137,-381 155,-470 22,-108 -31,-78 44,-172l3 -24 35 -197 -41 -108 -134 319z"/>
   <path class="fil4" d="M9526 10507c-56,137 -23,-3 -125,119 -59,70 -2,57 -105,126 -174,117 -629,461 -750,581 -217,216 -374,153 -304,535 73,399 109,1144 146,1567 32,368 169,1144 222,1578 57,460 24,677 206,551 -25,-97 0,-108 -12,-204l-89 -549c-84,-636 -131,-901 -180,-1559l-75 -687c-10,-136 23,-196 -17,-379 -170,-766 76,-702 299,-914 159,-152 895,-680 951,-782 -66,-38 -79,-5 -167,17z"/>
   <path class="fil3" d="M13055 9013c-288,-144 -303,-290 -425,-427 -118,-134 -212,-368 -270,-574 -118,-415 -78,-260 -160,-688 -26,-135 -13,-218 -44,-362 -40,-191 -40,-206 1,-391l-248 -229 484 -585c-167,7 -287,139 -370,268 -93,144 -232,242 -273,404l222 190c-16,186 -48,159 -6,378 92,475 17,505 230,1125 23,67 101,280 128,334 52,104 143,186 207,279 119,174 40,112 217,244 93,69 204,167 307,33z"/>
   <path class="fil3" d="M11725 33790l204 289c38,-57 4,-116 -27,-199 -20,-56 -60,-137 -74,-183 -31,-104 6,-146 -35,-245 -29,-70 -82,-55 -81,-160 4,-219 52,-147 -46,-407 -167,-445 150,-87 -15,-1292 -35,-254 0,-269 61,-472 70,-238 -28,-288 -14,-504 -85,25 -88,59 -154,-23 -72,109 43,253 14,416 -24,135 -99,208 -96,381 2,153 37,293 45,446 8,140 -1,273 16,422 25,215 -89,179 -82,387 5,141 92,266 113,402 21,137 -27,80 -6,209 14,84 54,93 78,177 22,79 -3,73 31,175 25,74 53,108 66,182z"/>
   <path class="fil3" d="M11019 13995c376,-15 957,-426 1235,-644 140,-109 452,-290 525,-423 75,-136 -52,30 136,-222 52,-70 -13,-3 59,-70 270,-254 156,-162 340,-376 125,-146 -77,-22 327,-389 91,-83 168,-123 267,-220 138,-135 44,-161 205,-282 191,-145 323,-291 499,-445l29 -23c156,-116 -113,82 31,-21 248,-175 291,-401 426,-443l128 -265c-299,161 -555,613 -726,738 -123,89 -316,295 -540,460 -186,137 -104,154 -218,294 -165,200 -447,302 -567,557 -49,105 -63,68 -117,143 -234,324 -80,101 -301,335 -100,106 -121,222 -199,317l-862 650c-129,66 -200,123 -333,178 -88,36 -295,91 -345,152z"/>
   <path class="fil4" d="M8271 15805c-9,-83 -41,-176 -40,-269 1,-144 50,-114 21,-269 -29,-156 -79,-368 -115,-523 -82,-348 -136,-702 -204,-1047l-223 -1034c-115,-398 93,-393 358,-760l-31 -114c-103,85 -193,206 -281,315 -78,96 -231,238 -253,333l200 847c68,262 106,603 169,879l273 1320c16,85 47,384 126,322z"/>
   <path class="fil4" d="M7729 16308l-126 -541c-32,-85 -81,-428 -166,-435 -1,0 -9,1 -10,1 -1,0 -7,3 -10,2 12,-163 -156,-765 -212,-1043 -66,-329 -172,-782 -200,-1111 64,-126 270,-408 384,-506l-29 -100c-152,74 -369,463 -513,604 -7,603 321,1504 483,2090l243 782c19,58 103,381 155,259z"/>
   <path class="fil3" d="M7591 12088c-51,-114 -115,-558 -154,-714 -150,-598 -205,-767 -332,-1432 -64,-336 -57,-392 130,-681 -264,-6 -354,382 -307,592l364 1557c30,228 123,569 177,799l121 -122z"/>
   <path class="fil3" d="M6550 16358l138 -5c-8,-65 -487,-491 -564,-569 -179,-182 -467,-469 -318,-736 143,-255 252,-474 426,-726 94,-135 139,-239 220,-371 64,-104 182,-237 228,-336l-39 -117c-120,110 -849,1281 -938,1472 -297,632 717,1142 846,1387z"/>
   <path class="fil3" d="M13260 9218c279,50 617,-611 713,-809 176,-363 187,-930 261,-1316l-191 -403c-20,135 6,221 -3,368 -8,124 -12,279 -26,401 -26,216 -86,490 -137,699 -65,268 -102,344 -245,576 -267,431 -247,305 -371,485z"/>
   <path class="fil3" d="M10588 13343c-241,-14 -292,-145 -344,-350 -88,-354 110,-1440 242,-1683l-50 -418c-100,244 -310,1086 -350,1392 -28,214 -107,943 147,1057 121,54 241,29 354,3z"/>
   <path class="fil5" d="M14187 31758c175,-99 563,-349 710,-474 138,-119 518,-442 624,-578 13,-183 173,-254 160,-402 -141,185 -954,958 -1155,1071 -232,130 -453,307 -675,452 -118,77 -229,145 -349,214 -117,67 -258,129 -344,201 122,-32 29,-30 149,-64 64,-19 88,-11 148,-29 242,-72 556,-373 733,-390z"/>
   <path class="fil4" d="M15521 30706c-107,136 -486,459 -624,578 -146,125 -534,375 -710,474 -287,218 -616,408 -940,570 89,-30 121,-51 200,-87 83,-37 133,-30 219,-61 223,-80 364,-214 548,-323 61,-36 133,-55 194,-88 96,-53 232,-153 341,-222 269,-169 433,-302 635,-518 138,-147 279,-205 335,-332 79,-180 96,-140 170,-345 -114,61 -230,254 -367,355z"/>
   <path class="fil3" d="M6584 7005c22,73 50,233 65,315 55,287 84,108 142,266 2,14 -344,800 -156,1101 104,-90 20,-332 127,-423 -11,-130 24,-248 61,-371 17,-56 32,-98 51,-151 40,-111 -2,-102 83,-148l-4 -96c-152,-111 -106,-28 -156,-228 -59,-237 -153,-761 -273,-927 -66,88 44,535 59,662z"/>
   <path class="fil3" d="M13368 5657c50,46 79,48 131,88l370 348c240,232 170,411 344,622l9 -76c112,147 175,430 322,533 -66,-631 -653,-1507 -1253,-1692l77 178z"/>
   <path class="fil6" d="M14516 10089c-32,59 -513,464 -600,544 -96,87 -195,162 -302,261l-968 773c-83,68 -265,177 -361,229 -130,69 -318,121 -407,183 678,-89 1219,-728 1662,-1004 185,-115 908,-776 1046,-952 91,-116 272,-183 331,-346 -134,84 -245,236 -400,312z"/>
   <path class="fil3" d="M4911 6091c38,127 -5,206 91,366 191,317 -24,293 -24,532 0,86 -4,128 -25,215 -35,146 -151,297 20,402 13,-65 23,-129 36,-194 18,-91 13,-137 76,-174 19,-74 47,-187 50,-260 6,-140 -46,-76 55,-198l18 -43c23,-194 78,-134 -36,-322 -105,-172 -190,-699 -236,-841 -30,-94 -16,-40 -93,-119l68 637z"/>
   <path class="fil4" d="M8327 8597c-14,144 -64,259 -32,401 63,-76 54,-209 91,-287 55,70 51,521 25,614 -130,463 8,265 114,529l-142 34 -14 67 133 31c50,-238 69,-89 198,-193 -115,-129 -269,-347 -199,-529 65,-168 172,-428 62,-604l-79 285c-63,-99 -9,-742 18,-917 18,-116 52,-179 -43,-241l-130 809z"/>
   <path class="fil4" d="M8326 11325c-46,-208 -77,-468 -72,-689 2,-88 -16,-250 -33,-335 -29,-145 -13,-182 -24,-310 -270,-290 -112,574 -103,643 24,175 42,685 123,793l109 -103z"/>
   <path class="fil7" d="M11785 10191c117,-138 227,-170 344,-372 117,-202 147,-322 210,-540 13,-112 -14,-104 -20,-201 -7,-106 40,-113 -20,-184 -103,157 -180,979 -676,1289 -223,139 -326,158 -463,225 225,-24 442,-90 625,-218z"/>
   <path class="fil4" d="M9190 16031c-77,208 -150,282 -239,447 -66,124 -55,151 -97,264 -61,164 -22,111 -46,237l77 -32c7,91 62,428 105,490l-17 -315c4,-3 13,-5 14,-6l31 -21c24,-43 -27,-52 -37,-150 -1,-10 -2,-41 -2,-50 3,-110 109,-395 167,-480 23,-35 324,-455 165,-488 -89,-18 -43,18 -121,104z"/>
   <path class="fil4" d="M8010 8218c-49,221 -6,114 26,274 -84,200 -287,475 -147,707 39,-59 35,-108 51,-198 9,-50 248,-421 248,-627 -103,-124 129,-749 -67,-951 16,83 -5,285 -13,376 -15,169 14,382 -97,419z"/>
   <path class="fil4" d="M11450 12039c-313,16 -445,-177 -556,-461 -82,-208 -191,-676 -112,-891 -62,-33 -39,-57 -157,-45 -29,410 99,1078 414,1328 265,210 201,47 411,69z"/>
   <path class="fil3" d="M12339 9280c-63,218 -93,338 -210,540 -117,202 -226,234 -344,372 223,-16 467,-285 546,-452 160,-340 219,-367 168,-733l-54 -32 -106 305z"/>
   <path class="fil4" d="M7112 7722l58 232 18 -187c60,118 84,356 123,477 38,121 221,282 323,342 -11,-123 -8,-139 -56,-242 -200,-125 -396,-1047 -470,-1153 -54,90 60,203 4,531z"/>
   <path class="fil4" d="M5816 7390c64,97 93,236 177,329 62,69 102,52 154,102 113,107 -37,99 120,160 41,-87 14,-156 -11,-252 -190,-76 -230,-239 -320,-415 -80,-156 -134,-371 -248,-479l128 555z"/>
   <path class="fil3" d="M4305 6342c102,133 119,180 200,329 51,94 132,319 176,364 45,-83 47,-175 55,-289l-197 -339c-64,-80 -230,-226 -323,-256 21,122 35,90 88,191z"/>
   <path class="fil3" d="M9148 15896c96,-59 184,-86 241,-188l71 -239c-112,-34 -83,-35 -193,-2 48,272 -136,349 -258,428 -48,31 -156,115 -206,153 -105,81 -90,135 -41,243 123,-13 105,-131 172,-216 52,-67 149,-112 214,-179z"/>
   <path class="fil6" d="M4106 6825c99,36 174,102 295,152 -5,-112 -8,-88 -60,-173 -190,-95 -220,-214 -349,-491 -60,-129 -194,-586 -234,-637 -98,230 364,920 348,1149z"/>
   <path class="fil6" d="M7918 16609l145 3 45 -185c54,-127 62,-73 244,-242 66,-62 193,-156 218,-238 -163,12 -298,180 -394,293 -4,5 -281,138 -258,370z"/>
   <path class="fil3" d="M6914 8929l152 -280 -43 -116c-116,60 -385,513 -216,757 79,-114 55,-279 107,-361z"/>
   <path class="fil6" d="M5331 7190l-12 100c76,106 83,32 95,174 90,-17 97,-24 158,-98 -46,-154 -88,26 -122,-333 -7,-73 2,-144 -21,-213 -26,-76 -71,-86 -65,-154 -23,191 26,311 -33,524z"/>
   <path class="fil8" d="M6763 8264l99 94c57,-148 106,-593 96,-764 -85,46 -43,37 -83,148 -19,53 -35,95 -51,151 -37,124 -72,241 -61,371z"/>
   <path class="fil3" d="M5990 8192c83,82 76,120 191,209 48,37 213,174 248,188l-53 -218c-98,-50 -261,-182 -294,-278l-184 -130 94 229z"/>
   <path class="fil6" d="M11680 7121c18,-144 7,-294 -22,-437 -25,135 -81,278 -109,425 -34,177 -62,283 -77,466 156,-89 53,-79 113,-173 83,-130 46,-136 95,-280z"/>
   <path class="fil3" d="M7453 9232c51,-107 16,-106 -11,-228 -70,-83 -106,-165 -86,-299l80 61c9,-91 27,-98 -15,-164l-99 -18c-78,154 -8,194 -22,370 -25,306 -4,197 155,279z"/>
   <path class="fil6" d="M4074 7188c46,67 42,61 111,82 169,51 -8,85 448,247 -23,-179 -157,-136 -287,-252 -132,-118 -231,-119 -279,-283 -103,-27 -26,-16 -52,25l60 181z"/>
   <path class="fil6" d="M5290 7856c12,-69 67,-321 85,-368 -262,77 -145,53 -199,273 -47,192 -95,178 -7,373l19 -34c41,-123 -18,92 13,-40 8,-36 11,-140 30,-170 34,-52 -3,-26 61,-33z"/>
   <path class="fil3" d="M4453 7818c122,83 237,155 384,187 -22,-164 -3,-76 -269,-245 -113,-72 -195,-182 -305,-216l190 275z"/>
   <path class="fil6" d="M6162 8620c-108,-2 -44,-1 -67,30l347 311c91,86 26,76 116,117l-39 -243 -356 -214z"/>
   <path class="fil3" d="M10285 10387c57,135 81,379 133,465l70 -468 -92 -76 -111 80z"/>
   <path class="fil9" d="M7174 16782c47,19 65,36 103,49 388,132 507,251 638,165 -288,-94 -249,-134 -736,-259l-5 44z"/>
   <path class="fil6" d="M8055 9305c-57,144 -113,227 -101,391 71,-74 36,-64 67,-169 71,0 27,-32 83,33 21,-70 54,-134 82,-204 52,-133 96,-82 94,-185 -93,60 -104,92 -225,133z"/>
   <path class="fil3" d="M10673 10423c36,68 31,57 50,122 11,36 -6,20 17,61 43,79 7,23 58,53 38,-126 127,-41 135,-41 8,-167 -108,-262 -260,-283l1 87z"/>
   <path class="fil10" d="M4453 7818l-190 -275 -233 -264c-1,57 107,268 141,314 68,94 162,185 282,225z"/>
   <path class="fil4" d="M12578 5450c90,51 141,54 126,178 331,-32 215,-194 -32,-244l-94 66z"/>
   <path class="fil8" d="M6914 8929c36,74 42,72 132,102l5 -139 81 59c12,-105 -18,-226 -66,-301l-152 280z"/>
   <path class="fil8" d="M5702 7856c200,90 166,352 289,336l-94 -229c-27,-48 -46,-108 -65,-159 -33,-90 -21,-102 -95,-145l-35 197z"/>
   <path class="fil3" d="M7568 9337c4,7 38,71 39,72 37,50 28,18 63,65 47,63 14,77 84,140 18,-27 17,12 18,-43l-42 -262 -156 -119c-1,105 30,89 -7,147z"/>
   <path class="fil11" d="M5085 7237l75 59c56,-147 76,-367 29,-517 -100,122 -49,58 -55,198 -3,73 -31,185 -50,260z"/>
   <path class="fil12" d="M7453 9232c77,38 58,58 115,105 37,-58 6,-43 7,-147l156 119c17,-66 -59,-109 -111,-143 -73,-48 -119,-102 -178,-161 27,122 62,121 11,228z"/>
   <path class="fil6" d="M8373 16532c55,56 -36,16 22,-3 179,-57 104,3 231,-177 -132,-82 -249,45 -254,180z"/>
   <path class="fil6" d="M7689 8992l-19 -184 -163 -109c14,92 65,271 182,293z"/>
   <path class="fil11" d="M6375 8372l2 -95 -297 -183c33,96 196,227 294,278z"/>
   <path class="fil13" d="M7046 9031l37 103c67,-65 52,-90 49,-184l-81 -59 -5 139z"/>
  </g>
 </g>
</svg>
